<svg xmlns="http://www.w3.org/2000/svg" version="1.1" x="0px" y="0px" viewBox="-202.36 111.622 1000 618.648" enable-background="new -202.36 111.622 1000 618.648" fill="#6B6668"><defs></defs><g><path d="M 227.753,586.51 333.948,480.313 V 674.229 H 658.03 V 111.622 H 337.61 L 227.753,221.313 118.06,111.622 H -202.36 V 674.229 H 121.722 V 480.313 Z" /><path d="m 308.57,586.48 h -44.442 l 44.442,-44.401 z m -161.142,87.749 h 44.72 v -87.281 l -44.72,-44.679 z m 1.426,-562.607 78.899,78.898 37.451,-37.286 z m 579.418,32.791 -48.77,-32.791 v 562.607 h 48.77 z" /><path d="m 787.864,200.174 c -14.815,-14.814 -36.621,-12.317 -49.437,-5.16 -18.976,10.486 -33.623,36.287 -42.612,45.774 -97.041,101.703 -123.174,197.245 -132.33,217.219 -1.83,4.162 -4.992,7.824 -10.485,7.824 -4.162,0 -7.99,-2.33 -9.321,-8.823 -4.161,-19.475 -6.825,-52.932 -9.987,-95.875 -1.664,-22.804 -18.643,-33.291 -39.448,-27.798 -20.142,5.161 -29.297,18.144 -27.466,40.781 1.333,17.644 5.327,35.121 15.98,82.892 2.496,11.652 24.634,110.192 43.776,137.823 23.303,33.623 65.416,21.805 66.08,-7.656 0.333,-17.313 2.165,-30.461 6.826,-47.939 17.144,-59.59 39.781,-98.538 57.425,-133.827 39.949,-79.564 85.391,-116.516 85.391,-116.516 40.78,-13.483 49.769,-34.29 52.266,-40.947 2.829,-7.657 7.656,-33.623 -6.658,-47.772 z M 447.135,579.519 c 0,-10.654 1.499,-53.931 1.499,-88.72 0,-29.295 -8.489,-82.227 -8.489,-110.523 0,-16.979 0,-36.787 -0.666,-45.275 13.649,-8.822 26.965,-17.811 65.083,-39.283 13.648,-7.657 40.614,-19.974 40.614,-41.114 0,-14.148 -13.149,-34.288 -33.79,-29.794 -18.643,3.995 -18.144,18.643 -48.104,37.118 -24.303,14.981 -37.285,22.305 -42.279,25.135 -1.996,-0.833 -10.319,-5.826 -23.637,-5.826 -13.981,0 -30.128,6.325 -30.128,24.302 0,8.323 2.665,17.311 -8.487,23.137 -6.16,3.995 -44.775,26.632 -77.068,46.106 -27.297,16.479 -39.948,15.147 -51.433,21.972 -10.653,6.326 -13.315,15.98 -13.315,22.971 0,6.16 3.829,13.981 5.326,15.647 7.324,9.321 13.816,14.48 25.468,14.48 19.474,0 35.787,-17.144 65.915,-38.451 18.809,-13.315 44.275,-32.624 54.429,-32.624 8.989,0 15.313,6.824 15.313,34.789 0,93.545 -5.658,109.526 -5.658,174.441 0,11.651 0.499,33.29 0.832,42.278 0.332,11.818 -0.333,45.608 -0.999,58.26 -0.333,10.319 9.154,46.105 38.949,41.279 30.96,-4.993 38.117,-23.47 38.45,-36.12 0.333,-12.318 -2.163,-46.272 -3.828,-63.252 -2.165,-13.981 -3.997,-33.623 -3.997,-50.933 z" /></g></svg>
